<svg width="91" height="91" viewBox="0 0 91 91" fill="none" xmlns="http://www.w3.org/2000/svg">
<g filter="url(#filter0_d_2_17)">
<g filter="url(#filter1_d_2_17)">
<circle cx="45.5" cy="39.5" r="33.5" fill="url(#paint0_radial_2_17)"/>
</g>
<path d="M44.3018 30.4282L45.3857 29.3442C45.8447 28.8853 46.5869 28.8853 47.041 29.3442L56.5332 38.8315C56.9922 39.2905 56.9922 40.0327 56.5332 40.4868L47.041 49.979C46.582 50.438 45.8398 50.438 45.3857 49.979L44.3018 48.895C43.8379 48.4312 43.8477 47.6743 44.3213 47.2202L50.2051 41.6147H36.1719C35.5225 41.6147 35 41.0923 35 40.4429V38.8804C35 38.231 35.5225 37.7085 36.1719 37.7085H50.2051L44.3213 32.103C43.8428 31.6489 43.833 30.8921 44.3018 30.4282Z" fill="white"/>
</g>
<defs>
<filter id="filter0_d_2_17" x="8" y="6" width="75" height="75" filterUnits="userSpaceOnUse" color-interpolation-filters="sRGB">
<feFlood flood-opacity="0" result="BackgroundImageFix"/>
<feColorMatrix in="SourceAlpha" type="matrix" values="0 0 0 0 0 0 0 0 0 0 0 0 0 0 0 0 0 0 127 0" result="hardAlpha"/>
<feOffset dy="4"/>
<feGaussianBlur stdDeviation="2"/>
<feComposite in2="hardAlpha" operator="out"/>
<feColorMatrix type="matrix" values="0 0 0 0 0 0 0 0 0 0 0 0 0 0 0 0 0 0 0.25 0"/>
<feBlend mode="normal" in2="BackgroundImageFix" result="effect1_dropShadow_2_17"/>
<feBlend mode="normal" in="SourceGraphic" in2="effect1_dropShadow_2_17" result="shape"/>
</filter>
<filter id="filter1_d_2_17" x="0" y="0" width="91" height="91" filterUnits="userSpaceOnUse" color-interpolation-filters="sRGB">
<feFlood flood-opacity="0" result="BackgroundImageFix"/>
<feColorMatrix in="SourceAlpha" type="matrix" values="0 0 0 0 0 0 0 0 0 0 0 0 0 0 0 0 0 0 127 0" result="hardAlpha"/>
<feMorphology radius="1" operator="dilate" in="SourceAlpha" result="effect1_dropShadow_2_17"/>
<feOffset dy="6"/>
<feGaussianBlur stdDeviation="5.5"/>
<feColorMatrix type="matrix" values="0 0 0 0 0.921569 0 0 0 0 0.156863 0 0 0 0 0.890196 0 0 0 0.2 0"/>
<feBlend mode="normal" in2="BackgroundImageFix" result="effect1_dropShadow_2_17"/>
<feBlend mode="normal" in="SourceGraphic" in2="effect1_dropShadow_2_17" result="shape"/>
</filter>
<radialGradient id="paint0_radial_2_17" cx="0" cy="0" r="1" gradientUnits="userSpaceOnUse" gradientTransform="translate(46 -62) rotate(60.1011) scale(138.423)">
<stop stop-color="white" stop-opacity="0.01"/>
<stop offset="1" stop-color="#E906E0"/>
</radialGradient>
</defs>
</svg>
