<svg width="91" height="91" viewBox="0 0 91 91" fill="none" xmlns="http://www.w3.org/2000/svg">
<g filter="url(#filter0_d_2_38)">
<circle cx="45.5" cy="39.5" r="33.5" fill="url(#paint0_radial_2_38)"/>
</g>
<path d="M55.3125 37.5938H48.2812V30.5625C48.2812 29.6997 47.5815 29 46.7188 29H45.1562C44.2935 29 43.5938 29.6997 43.5938 30.5625V37.5938H36.5625C35.6997 37.5938 35 38.2935 35 39.1562V40.7188C35 41.5815 35.6997 42.2812 36.5625 42.2812H43.5938V49.3125C43.5938 50.1753 44.2935 50.875 45.1562 50.875H46.7188C47.5815 50.875 48.2812 50.1753 48.2812 49.3125V42.2812H55.3125C56.1753 42.2812 56.875 41.5815 56.875 40.7188V39.1562C56.875 38.2935 56.1753 37.5938 55.3125 37.5938Z" fill="white"/>
<defs>
<filter id="filter0_d_2_38" x="0" y="0" width="91" height="91" filterUnits="userSpaceOnUse" color-interpolation-filters="sRGB">
<feFlood flood-opacity="0" result="BackgroundImageFix"/>
<feColorMatrix in="SourceAlpha" type="matrix" values="0 0 0 0 0 0 0 0 0 0 0 0 0 0 0 0 0 0 127 0" result="hardAlpha"/>
<feMorphology radius="1" operator="dilate" in="SourceAlpha" result="effect1_dropShadow_2_38"/>
<feOffset dy="6"/>
<feGaussianBlur stdDeviation="5.5"/>
<feColorMatrix type="matrix" values="0 0 0 0 0.921569 0 0 0 0 0.156863 0 0 0 0 0.890196 0 0 0 0.2 0"/>
<feBlend mode="normal" in2="BackgroundImageFix" result="effect1_dropShadow_2_38"/>
<feBlend mode="normal" in="SourceGraphic" in2="effect1_dropShadow_2_38" result="shape"/>
</filter>
<radialGradient id="paint0_radial_2_38" cx="0" cy="0" r="1" gradientUnits="userSpaceOnUse" gradientTransform="translate(46 -62) rotate(60.1011) scale(138.423)">
<stop stop-color="white" stop-opacity="0.01"/>
<stop offset="1" stop-color="#E906E0"/>
</radialGradient>
</defs>
</svg>
