<svg width="30" height="30" viewBox="0 0 30 30" fill="none" xmlns="http://www.w3.org/2000/svg">
<g filter="url(#filter0_d_2_70)">
<path d="M13.3018 1.42822L14.3857 0.344238C14.8447 -0.114746 15.5869 -0.114746 16.041 0.344238L25.5332 9.83154C25.9922 10.2905 25.9922 11.0327 25.5332 11.4868L16.041 20.979C15.582 21.438 14.8398 21.438 14.3857 20.979L13.3018 19.895C12.8379 19.4312 12.8477 18.6743 13.3213 18.2202L19.2051 12.6147H5.17188C4.52246 12.6147 4 12.0923 4 11.4429V9.88037C4 9.23096 4.52246 8.7085 5.17188 8.7085H19.2051L13.3213 3.10303C12.8428 2.64893 12.833 1.89209 13.3018 1.42822Z" fill="white"/>
</g>
<defs>
<filter id="filter0_d_2_70" x="0" y="0" width="29.8774" height="29.3232" filterUnits="userSpaceOnUse" color-interpolation-filters="sRGB">
<feFlood flood-opacity="0" result="BackgroundImageFix"/>
<feColorMatrix in="SourceAlpha" type="matrix" values="0 0 0 0 0 0 0 0 0 0 0 0 0 0 0 0 0 0 127 0" result="hardAlpha"/>
<feOffset dy="4"/>
<feGaussianBlur stdDeviation="2"/>
<feComposite in2="hardAlpha" operator="out"/>
<feColorMatrix type="matrix" values="0 0 0 0 0 0 0 0 0 0 0 0 0 0 0 0 0 0 0.25 0"/>
<feBlend mode="normal" in2="BackgroundImageFix" result="effect1_dropShadow_2_70"/>
<feBlend mode="normal" in="SourceGraphic" in2="effect1_dropShadow_2_70" result="shape"/>
</filter>
</defs>
</svg>
